<svg width="80" height="80" viewBox="0 0 80 80" fill="none" xmlns="http://www.w3.org/2000/svg">
<g filter="url(#filter0_d_44115_1721)">
<g clip-path="url(#clip0_44115_1721)">
<path d="M65.2915 27.9142V50.1695C65.2915 51.0772 65.0919 51.9512 64.7594 52.7245C64.2273 53.9347 63.3294 54.9433 62.1654 55.6156L52.8536 61.0282L43.1095 66.7096C42.3778 67.1131 41.613 67.382 40.8148 67.5165C39.5511 67.6846 38.2208 67.4493 37.0568 66.8441C36.9903 66.8105 36.9238 66.7769 36.8573 66.7433L32.2679 64.0538L17.8347 55.6156C16.6707 54.9433 15.7728 53.9011 15.2407 52.7245C14.8748 51.9176 14.7086 51.0772 14.7086 50.1695V27.9142C14.7086 25.6618 15.9058 23.5775 17.8347 22.468L33.1991 13.492L35.8596 11.9455L36.8573 11.374C38.0878 10.6681 39.4513 10.3991 40.8148 10.6008C41.613 10.7017 42.3778 10.9706 43.1095 11.374L52.8536 17.0555L62.1654 22.5017C64.0942 23.5775 65.2915 25.6618 65.2915 27.9142Z" fill="#217C58"/>
<path d="M39.9834 65.0288C39.418 65.0288 38.8859 64.8944 38.3871 64.5918L18.8989 53.1952C17.9012 52.6237 17.3026 51.5479 17.3026 50.4049V27.6454C17.3026 26.5023 17.9012 25.4266 18.8989 24.8551L38.3871 13.4921C38.8859 13.2231 39.418 13.0551 39.9834 13.0551C40.5487 13.0551 41.0808 13.1895 41.5797 13.4921L61.0679 24.8551C62.0656 25.4266 62.6642 26.5023 62.6642 27.6454V50.4049C62.6642 51.5479 62.0656 52.6237 61.0679 53.1952L41.5797 64.5918C41.1141 64.8607 40.5487 65.0288 39.9834 65.0288Z" fill="#21B573"/>
<path d="M60.303 17.0219C60.303 27.8133 60.303 40.0167 60.303 50.8082C53.6185 48.5221 46.6679 48.5221 40.0167 50.8082C40.0167 49.8669 40.0167 48.8919 40.0167 47.9506C46.0693 46.0344 52.3548 46.0344 58.4074 47.9506C58.4074 37.6298 58.4074 27.3427 58.4074 17.0219H60.303V17.0219Z" fill="#56548C"/>
<path d="M39.9834 47.9506C39.9834 48.8919 39.9834 49.8669 39.9834 50.8082C33.2989 48.5221 26.3483 48.5221 19.697 50.8082C19.697 40.0167 19.697 27.8133 19.697 17.0219H21.6259C21.6259 27.3427 21.6259 37.6298 21.6259 47.9506C27.6453 46.0344 33.964 46.0344 39.9834 47.9506Z" fill="#46467C"/>
<path d="M39.9834 47.9507C39.9834 37.092 39.9834 26.2333 39.9834 15.341C46.0361 13.4247 52.3215 13.4247 58.3742 15.341C58.3742 15.8789 58.3742 16.4504 58.3742 17.0219C58.3742 27.3427 58.3742 37.6299 58.3742 47.9507C52.3215 46.0344 46.0361 46.0344 39.9834 47.9507Z" fill="#E4E8EA"/>
<path d="M39.9834 15.3741C39.9834 26.2328 39.9834 37.0914 39.9834 47.9837C33.9308 46.0675 27.6453 46.0675 21.5927 47.9837C21.5927 37.663 21.5927 27.3758 21.5927 17.055C21.5927 16.5171 21.5927 15.9456 21.5927 15.3741C27.6453 13.4578 33.964 13.4578 39.9834 15.3741Z" fill="#F9FBFC"/>
<path d="M21.6259 45.0259C21.6259 46.0009 21.6259 46.9758 21.6259 47.9507C27.6786 46.0345 33.964 46.0345 40.0167 47.9507C40.0167 46.9758 40.0167 46.0009 40.0167 45.0259C33.964 43.1097 27.6453 43.1097 21.6259 45.0259Z" fill="#E4E8EA"/>
<path d="M58.3742 45.0259C58.3742 46.0009 58.3742 46.9758 58.3742 47.9507C52.3215 46.0345 46.0361 46.0345 39.9834 47.9507C39.9834 46.9758 39.9834 46.0009 39.9834 45.0259C46.0361 43.1097 52.3215 43.1097 58.3742 45.0259Z" fill="#CED5D8"/>
<path d="M37.3229 17.5934C32.9996 16.6184 28.6097 16.6184 24.2864 17.5934L24.1866 17.1899C28.5765 16.215 32.9996 16.215 37.3894 17.1899L37.3229 17.5934Z" fill="#56548C"/>
<path d="M37.3229 21.0224C32.9996 20.0474 28.6097 20.0474 24.2864 21.0224L24.1866 20.5853C28.5765 19.6104 32.9996 19.6104 37.3894 20.5853L37.3229 21.0224Z" fill="#56548C"/>
<path d="M37.3229 24.4178C32.9996 23.4429 28.6097 23.4429 24.2864 24.4178L24.1866 24.0144C28.5765 23.0395 32.9996 23.0395 37.3894 24.0144L37.3229 24.4178Z" fill="#56548C"/>
<path d="M37.3229 27.8469C32.9996 26.872 28.6097 26.872 24.2864 27.8469L24.1866 27.4435C28.5765 26.4685 32.9996 26.4685 37.3894 27.4435L37.3229 27.8469Z" fill="#56548C"/>
<path d="M37.3229 31.276C32.9996 30.3347 28.6097 30.3347 24.2864 31.276L24.1866 30.8726C28.5765 29.8976 32.9996 29.8976 37.3894 30.8726L37.3229 31.276Z" fill="#56548C"/>
<path d="M37.3229 34.7051C32.9996 33.7301 28.6097 33.7301 24.2864 34.7051L24.1866 34.3016C28.5765 33.3267 32.9996 33.3267 37.3894 34.3016L37.3229 34.7051Z" fill="#56548C"/>
<path d="M37.3229 38.1341C32.9996 37.1592 28.6097 37.1592 24.2864 38.1341L24.1866 37.7307C28.5765 36.7558 32.9996 36.7558 37.3894 37.7307L37.3229 38.1341Z" fill="#56548C"/>
<path d="M37.3229 41.5632C32.9996 40.5883 28.6097 40.5883 24.2864 41.5632L24.1866 41.1598C28.5765 40.1849 32.9996 40.1849 37.3894 41.1598L37.3229 41.5632Z" fill="#56548C"/>
<path d="M55.6804 17.5934C51.3571 16.6184 46.9672 16.6184 42.6439 17.5934L42.5441 17.1899C46.934 16.215 51.3571 16.215 55.7469 17.1899L55.6804 17.5934Z" fill="#56548C"/>
<path d="M55.6804 21.0224C51.3571 20.0474 46.9672 20.0474 42.6439 21.0224L42.5774 20.5853C46.9672 19.6104 51.3903 19.6104 55.7802 20.5853L55.6804 21.0224Z" fill="#56548C"/>
<path d="M55.6804 24.4178C51.3571 23.4429 46.9672 23.4429 42.6439 24.4178L42.5441 24.0144C46.934 23.0395 51.3571 23.0395 55.7469 24.0144L55.6804 24.4178Z" fill="#56548C"/>
<path d="M55.6804 27.8469C51.3571 26.872 46.9672 26.872 42.6439 27.8469L42.5441 27.4435C46.934 26.4685 51.3571 26.4685 55.7469 27.4435L55.6804 27.8469Z" fill="#56548C"/>
<path d="M55.6804 31.276C51.3571 30.301 46.9672 30.301 42.6439 31.276L42.5441 30.8726C46.934 29.8976 51.3571 29.8976 55.7469 30.8726L55.6804 31.276Z" fill="#56548C"/>
<path d="M55.6804 34.7051C51.3571 33.7301 46.9672 33.7301 42.6439 34.7051L42.5441 34.3016C46.934 33.3267 51.3571 33.3267 55.7469 34.3016L55.6804 34.7051Z" fill="#56548C"/>
<path d="M55.6804 38.1341C51.3571 37.1592 46.9672 37.1592 42.6439 38.1341L42.5774 37.7307C46.9672 36.7558 51.3903 36.7558 55.7802 37.7307L55.6804 38.1341Z" fill="#56548C"/>
<path d="M55.6804 41.5632C51.3571 40.5883 46.9672 40.5883 42.6439 41.5632L42.5441 41.1598C46.934 40.1849 51.3571 40.1849 55.7469 41.1598L55.6804 41.5632Z" fill="#56548C"/>
<path d="M55.6139 53.867C55.6139 52.9593 54.8822 52.2533 54.0175 52.2533H52.4545H48.4305H29.8734L26.049 53.598V54.8419L29.8734 56.1866H48.4305H52.4545H54.0175C54.9155 56.1866 55.6139 55.447 55.6139 54.573V53.867Z" fill="#EEE2D2"/>
<path d="M54.0176 52.2538C54.9155 52.2538 55.6139 52.9934 55.6139 53.8675V54.5399C55.6139 55.4476 54.8822 56.1536 54.0176 56.1536H52.4545V55.5821V54.6407V53.6994V52.7581V52.2202H54.0176V52.2538Z" fill="#F49A9A"/>
<path d="M48.4305 52.2533H52.4546V52.7912H48.4305V52.2533Z" fill="#FBD15B"/>
<path d="M52.4546 53.733V54.6407H48.4305V54.2037V53.733H52.4546Z" fill="#FBD15B"/>
<path d="M52.4546 55.582V56.1872H48.4305V55.582H52.4546Z" fill="#FBD15B"/>
<path d="M52.4546 54.6407H48.4305V55.5821H52.4546V54.6407Z" fill="#E2B137"/>
<path d="M52.4546 52.7917V53.7331H48.4305V52.7917H52.4546Z" fill="#E2B137"/>
<path d="M48.4305 52.2533V52.7912V53.7325V54.2032H29.8735V52.2533H48.4305Z" fill="#56548C"/>
<path d="M48.4305 54.2037V54.6408V55.5821V56.1872H29.8735V54.2037H48.4305Z" fill="#46467C"/>
<path d="M24.3529 54.2036L26.049 53.5985V54.8424L24.3529 54.2036Z" fill="#3B4D57"/>
<path d="M29.8734 52.2533V54.2032V56.1866L26.049 54.8419V53.598L29.8734 52.2533Z" fill="#FFC8AF"/>
<path d="M14.6088 54.3717C31.0707 59.9187 48.8961 59.9187 65.358 54.3717C66.4887 57.8344 67.6527 61.3307 68.7834 64.7934C50.0933 71.1136 29.8735 71.1136 11.1501 64.7934C12.3141 61.2971 13.4781 57.8344 14.6088 54.3717Z" fill="#FBD15B"/>
<path d="M4 58.0697C6.72702 59.3136 9.4873 60.423 12.3141 61.3643C13.079 59.0447 13.8439 56.6914 14.642 54.3717C16.4046 54.9769 18.1672 55.4811 19.9298 55.9518C20.2291 54.7752 20.5284 53.6321 20.8277 52.4555C16.6374 51.3461 12.5136 49.9005 8.48961 48.0515C8.68914 50.1358 8.92194 52.2538 9.2545 54.3717C7.55843 55.6492 5.79584 56.8931 4 58.0697Z" fill="#F4C653"/>
<path d="M14.6088 54.3718C16.7372 53.8339 18.7991 53.1951 20.7944 52.4891C20.4951 53.6658 20.1958 54.8088 19.8965 55.9854C18.1339 55.4812 16.3714 54.9433 14.6088 54.3718Z" fill="#E2B042"/>
<path d="M76 58.0697C73.273 59.3136 70.5127 60.423 67.6859 61.3643C66.921 59.0447 66.1561 56.6914 65.358 54.3717C63.5954 54.9769 61.8328 55.4811 60.0702 55.9518C59.7709 54.7752 59.4716 53.6321 59.1723 52.4555C63.3626 51.3461 67.4864 49.9005 71.5104 48.0515C71.3109 50.1358 71.0781 52.2538 70.7455 54.3717C72.4416 55.6492 74.1709 56.8931 76 58.0697Z" fill="#F4C653"/>
<path d="M65.358 54.3718C63.2296 53.8339 61.1677 53.1951 59.1723 52.4891C59.4716 53.6658 59.7709 54.8088 60.0702 55.9854C61.8328 55.4812 63.6287 54.9433 65.358 54.3718Z" fill="#E2B042"/>
</g>
</g>
<defs>
<filter id="filter0_d_44115_1721" x="-4" y="0" width="88" height="88" filterUnits="userSpaceOnUse" color-interpolation-filters="sRGB">
<feFlood flood-opacity="0" result="BackgroundImageFix"/>
<feColorMatrix in="SourceAlpha" type="matrix" values="0 0 0 0 0 0 0 0 0 0 0 0 0 0 0 0 0 0 127 0" result="hardAlpha"/>
<feOffset dy="4"/>
<feGaussianBlur stdDeviation="2"/>
<feComposite in2="hardAlpha" operator="out"/>
<feColorMatrix type="matrix" values="0 0 0 0 0 0 0 0 0 0 0 0 0 0 0 0 0 0 0.25 0"/>
<feBlend mode="normal" in2="BackgroundImageFix" result="effect1_dropShadow_44115_1721"/>
<feBlend mode="normal" in="SourceGraphic" in2="effect1_dropShadow_44115_1721" result="shape"/>
</filter>
<clipPath id="clip0_44115_1721">
<rect width="72" height="59" fill="white" transform="translate(4 10.5)"/>
</clipPath>
</defs>
</svg>
