<svg width="205" height="68" viewBox="0 0 205 68" fill="none" xmlns="http://www.w3.org/2000/svg">
<g filter="url(#filter0_d_44115_1789)">
<g clip-path="url(#clip0_44115_1789)">
<path d="M65.4179 18.2044V40.4596C65.4179 41.3673 65.2184 42.2414 64.8858 43.0146C64.3537 44.2249 63.4558 45.2334 62.2918 45.9058L52.9801 51.3183L43.2359 56.9998C42.5043 57.4032 41.7394 57.6722 40.9413 57.8066C39.6775 57.9747 38.3473 57.7394 37.1833 57.1343C37.1168 57.1007 37.0503 57.067 36.9838 57.0334L32.3944 54.344L17.9611 45.9058C16.7971 45.2334 15.8992 44.1913 15.3671 43.0146C15.0013 42.2078 14.835 41.3673 14.835 40.4596V18.2044C14.835 15.9519 16.0323 13.8676 17.9611 12.7582L33.3256 3.78214L35.9861 2.2357L36.9838 1.66419C38.2142 0.958212 39.5778 0.689266 40.9413 0.890975C41.7394 0.99183 42.5043 1.26078 43.2359 1.66419L52.9801 7.34568L62.2918 12.7918C64.2207 13.8676 65.4179 15.9519 65.4179 18.2044Z" fill="#217C58"/>
<path d="M40.1098 55.319C39.5445 55.319 39.0124 55.1845 38.5135 54.882L19.0253 43.4854C18.0276 42.9139 17.429 41.8381 17.429 40.6951V17.9355C17.429 16.7925 18.0276 15.7167 19.0253 15.1452L38.5135 3.78225C39.0124 3.51331 39.5445 3.34521 40.1098 3.34521C40.6752 3.34521 41.2073 3.47969 41.7062 3.78225L61.1944 15.1452C62.1921 15.7167 62.7907 16.7925 62.7907 17.9355V40.6951C62.7907 41.8381 62.1921 42.9139 61.1944 43.4854L41.7062 54.882C41.2406 55.1509 40.6752 55.319 40.1098 55.319Z" fill="#21B573"/>
<path d="M60.4295 7.31201C60.4295 18.1035 60.4295 30.3069 60.4295 41.0983C53.745 38.8123 46.7944 38.8123 40.1431 41.0983C40.1431 40.157 40.1431 39.1821 40.1431 38.2408C46.1958 36.3246 52.4812 36.3246 58.5339 38.2408C58.5339 27.92 58.5339 17.6328 58.5339 7.31201H60.4295V7.31201Z" fill="#56548C"/>
<path d="M40.1099 38.2408C40.1099 39.1821 40.1099 40.157 40.1099 41.0983C33.4253 38.8123 26.4748 38.8123 19.8235 41.0983C19.8235 30.3069 19.8235 18.1035 19.8235 7.31201H21.7524C21.7524 17.6328 21.7524 27.92 21.7524 38.2408C27.7718 36.3246 34.0905 36.3246 40.1099 38.2408Z" fill="#46467C"/>
<path d="M40.1099 38.2408C40.1099 27.3822 40.1099 16.5235 40.1099 5.63115C46.1625 3.71491 52.448 3.71491 58.5006 5.63115C58.5006 6.16904 58.5006 6.74055 58.5006 7.31206C58.5006 17.6329 58.5006 27.92 58.5006 38.2408C52.448 36.3246 46.1625 36.3246 40.1099 38.2408Z" fill="#E4E8EA"/>
<path d="M40.1099 5.66423C40.1099 16.5229 40.1099 27.3816 40.1099 38.2739C34.0572 36.3577 27.7718 36.3577 21.7191 38.2739C21.7191 27.9531 21.7191 17.6659 21.7191 7.34514C21.7191 6.80725 21.7191 6.23574 21.7191 5.66423C27.7718 3.74799 34.0905 3.74799 40.1099 5.66423Z" fill="#F9FBFC"/>
<path d="M21.7524 35.3161C21.7524 36.291 21.7524 37.2659 21.7524 38.2409C27.805 36.3246 34.0905 36.3246 40.1431 38.2409C40.1431 37.2659 40.1431 36.291 40.1431 35.3161C34.0905 33.3998 27.7718 33.3998 21.7524 35.3161Z" fill="#E4E8EA"/>
<path d="M58.5006 35.3161C58.5006 36.291 58.5006 37.2659 58.5006 38.2409C52.448 36.3246 46.1625 36.3246 40.1099 38.2409C40.1099 37.2659 40.1099 36.291 40.1099 35.3161C46.1625 33.3998 52.448 33.3998 58.5006 35.3161Z" fill="#CED5D8"/>
<path d="M37.4494 7.88352C33.126 6.90859 28.7362 6.90859 24.4129 7.88352L24.3131 7.4801C28.7029 6.50517 33.126 6.50517 37.5159 7.4801L37.4494 7.88352Z" fill="#56548C"/>
<path d="M37.4494 11.3125C33.126 10.3376 28.7362 10.3376 24.4129 11.3125L24.3131 10.8755C28.7029 9.90056 33.126 9.90056 37.5159 10.8755L37.4494 11.3125Z" fill="#56548C"/>
<path d="M37.4494 14.708C33.126 13.7331 28.7362 13.7331 24.4129 14.708L24.3131 14.3046C28.7029 13.3296 33.126 13.3296 37.5159 14.3046L37.4494 14.708Z" fill="#56548C"/>
<path d="M37.4494 18.1371C33.126 17.1621 28.7362 17.1621 24.4129 18.1371L24.3131 17.7336C28.7029 16.7587 33.126 16.7587 37.5159 17.7336L37.4494 18.1371Z" fill="#56548C"/>
<path d="M37.4494 21.5661C33.126 20.6248 28.7362 20.6248 24.4129 21.5661L24.3131 21.1627C28.7029 20.1878 33.126 20.1878 37.5159 21.1627L37.4494 21.5661Z" fill="#56548C"/>
<path d="M37.4494 24.9952C33.126 24.0203 28.7362 24.0203 24.4129 24.9952L24.3131 24.5918C28.7029 23.6169 33.126 23.6169 37.5159 24.5918L37.4494 24.9952Z" fill="#56548C"/>
<path d="M37.4494 28.4243C33.126 27.4494 28.7362 27.4494 24.4129 28.4243L24.3131 28.0209C28.7029 27.0459 33.126 27.0459 37.5159 28.0209L37.4494 28.4243Z" fill="#56548C"/>
<path d="M37.4494 31.8534C33.126 30.8784 28.7362 30.8784 24.4129 31.8534L24.3131 31.4499C28.7029 30.475 33.126 30.475 37.5159 31.4499L37.4494 31.8534Z" fill="#56548C"/>
<path d="M55.8069 7.88352C51.4835 6.90859 47.0937 6.90859 42.7704 7.88352L42.6706 7.4801C47.0604 6.50517 51.4835 6.50517 55.8734 7.4801L55.8069 7.88352Z" fill="#56548C"/>
<path d="M55.8069 11.3125C51.4835 10.3376 47.0937 10.3376 42.7704 11.3125L42.7039 10.8755C47.0937 9.90056 51.5168 9.90056 55.9066 10.8755L55.8069 11.3125Z" fill="#56548C"/>
<path d="M55.8069 14.708C51.4835 13.7331 47.0937 13.7331 42.7704 14.708L42.6706 14.3046C47.0604 13.3296 51.4835 13.3296 55.8734 14.3046L55.8069 14.708Z" fill="#56548C"/>
<path d="M55.8069 18.1371C51.4835 17.1621 47.0937 17.1621 42.7704 18.1371L42.6706 17.7336C47.0604 16.7587 51.4835 16.7587 55.8734 17.7336L55.8069 18.1371Z" fill="#56548C"/>
<path d="M55.8069 21.5661C51.4835 20.5912 47.0937 20.5912 42.7704 21.5661L42.6706 21.1627C47.0604 20.1878 51.4835 20.1878 55.8734 21.1627L55.8069 21.5661Z" fill="#56548C"/>
<path d="M55.8069 24.9952C51.4835 24.0203 47.0937 24.0203 42.7704 24.9952L42.6706 24.5918C47.0604 23.6169 51.4835 23.6169 55.8734 24.5918L55.8069 24.9952Z" fill="#56548C"/>
<path d="M55.8069 28.4243C51.4835 27.4494 47.0937 27.4494 42.7704 28.4243L42.7039 28.0209C47.0937 27.0459 51.5168 27.0459 55.9066 28.0209L55.8069 28.4243Z" fill="#56548C"/>
<path d="M55.8069 31.8534C51.4835 30.8784 47.0937 30.8784 42.7704 31.8534L42.6706 31.4499C47.0604 30.475 51.4835 30.475 55.8734 31.4499L55.8069 31.8534Z" fill="#56548C"/>
<path d="M55.7403 44.1571C55.7403 43.2494 55.0087 42.5435 54.144 42.5435H52.581H48.5569H29.9999L26.1754 43.8882V45.1321L29.9999 46.4768H48.5569H52.581H54.144C55.0419 46.4768 55.7403 45.7372 55.7403 44.8631V44.1571Z" fill="#EEE2D2"/>
<path d="M54.144 42.544C55.042 42.544 55.7404 43.2836 55.7404 44.1577V44.83C55.7404 45.7377 55.0087 46.4437 54.144 46.4437H52.581V45.8722V44.9309V43.9896V43.0483V42.5104H54.144V42.544Z" fill="#F49A9A"/>
<path d="M48.557 42.5435H52.581V43.0813H48.557V42.5435Z" fill="#FBD15B"/>
<path d="M52.581 44.0232V44.9309H48.557V44.4938V44.0232H52.581Z" fill="#FBD15B"/>
<path d="M52.581 45.8722V46.4773H48.557V45.8722H52.581Z" fill="#FBD15B"/>
<path d="M52.581 44.9309H48.557V45.8722H52.581V44.9309Z" fill="#E2B137"/>
<path d="M52.581 43.0819V44.0232H48.557V43.0819H52.581Z" fill="#E2B137"/>
<path d="M48.557 42.5435V43.0814V44.0227V44.4933H29.9999V42.5435H48.557Z" fill="#56548C"/>
<path d="M48.557 44.4939V44.9309V45.8722V46.4774H29.9999V44.4939H48.557Z" fill="#46467C"/>
<path d="M24.4794 44.4938L26.1754 43.8887V45.1325L24.4794 44.4938Z" fill="#3B4D57"/>
<path d="M29.9999 42.5435V44.4933V46.4768L26.1754 45.1321V43.8882L29.9999 42.5435Z" fill="#FFC8AF"/>
<path d="M14.7353 44.6619C31.1972 50.2089 49.0226 50.2089 65.4845 44.6619C66.6152 48.1245 67.7792 51.6208 68.9099 55.0835C50.2198 61.4037 29.9999 61.4037 11.2766 55.0835C12.4406 51.5872 13.6046 48.1245 14.7353 44.6619Z" fill="#FBD15B"/>
<path d="M4.12646 48.3599C6.85349 49.6038 9.61376 50.7132 12.4406 51.6545C13.2054 49.3348 13.9703 46.9816 14.7685 44.6619C16.5311 45.267 18.2937 45.7713 20.0563 46.242C20.3556 45.0653 20.6549 43.9223 20.9542 42.7457C16.7639 41.6363 12.6401 40.1907 8.61607 38.3417C8.81561 40.426 9.0484 42.544 9.38097 44.6619C7.68489 45.9394 5.92231 47.1833 4.12646 48.3599Z" fill="#F4C653"/>
<path d="M14.7352 44.6619C16.8636 44.124 18.9255 43.4853 20.9209 42.7793C20.6216 43.9559 20.3223 45.099 20.023 46.2756C18.2604 45.7713 16.4978 45.2334 14.7352 44.6619Z" fill="#E2B042"/>
<path d="M76.1265 48.3599C73.3995 49.6038 70.6392 50.7132 67.8124 51.6545C67.0475 49.3348 66.2826 46.9816 65.4844 44.6619C63.7219 45.267 61.9593 45.7713 60.1967 46.242C59.8974 45.0653 59.5981 43.9223 59.2988 42.7457C63.4891 41.6363 67.6129 40.1907 71.6369 38.3417C71.4373 40.426 71.2045 42.544 70.872 44.6619C72.5681 45.9394 74.2974 47.1833 76.1265 48.3599Z" fill="#F4C653"/>
<path d="M65.4845 44.6619C63.356 44.124 61.2941 43.4853 59.2988 42.7793C59.5981 43.9559 59.8974 45.099 60.1967 46.2756C61.9593 45.7713 63.7551 45.2334 65.4845 44.6619Z" fill="#E2B042"/>
</g>
<path d="M86.4879 38.7902C86.3056 38.7902 86.1565 38.7322 86.0405 38.6162C85.9245 38.5002 85.8665 38.351 85.8665 38.1687V22.0116C85.8665 21.8293 85.9245 21.6802 86.0405 21.5642C86.1565 21.4482 86.3056 21.3902 86.4879 21.3902H98.0962C98.2785 21.3902 98.4276 21.4482 98.5436 21.5642C98.6596 21.6802 98.7176 21.8293 98.7176 22.0116V24.3482C98.7176 24.5304 98.6596 24.6796 98.5436 24.7956C98.4276 24.9116 98.2785 24.9696 98.0962 24.9696H90.1668V28.3253H97.5493C97.7316 28.3253 97.8808 28.3916 97.9968 28.5242C98.1128 28.6402 98.1708 28.7893 98.1708 28.9716V31.1342C98.1708 31.2999 98.1128 31.449 97.9968 31.5816C97.8808 31.6976 97.7316 31.7556 97.5493 31.7556H90.1668V35.2107H98.295C98.4773 35.2107 98.6265 35.2687 98.7425 35.3847C98.8585 35.5007 98.9165 35.6499 98.9165 35.8322V38.1687C98.9165 38.351 98.8585 38.5002 98.7425 38.6162C98.6265 38.7322 98.4773 38.7902 98.295 38.7902H86.4879ZM101.87 33.1227C101.688 33.1227 101.539 33.0647 101.423 32.9487C101.307 32.8327 101.249 32.6836 101.249 32.5013V30.1647C101.249 29.9824 101.307 29.8333 101.423 29.7173C101.539 29.6013 101.688 29.5433 101.87 29.5433H109.651C109.833 29.5433 109.982 29.6013 110.098 29.7173C110.214 29.8333 110.272 29.9824 110.272 30.1647V32.5013C110.272 32.6836 110.214 32.8327 110.098 32.9487C109.982 33.0647 109.833 33.1227 109.651 33.1227H101.87ZM125.198 39.0387C123.541 39.0387 122.165 38.8067 121.071 38.3427C119.978 37.8622 119.149 37.2407 118.586 36.4784C118.022 35.7162 117.724 34.9042 117.691 34.0424C117.691 33.9099 117.741 33.7939 117.84 33.6944C117.956 33.5784 118.089 33.5204 118.238 33.5204H121.37C121.602 33.5204 121.776 33.5619 121.892 33.6447C122.024 33.7276 122.14 33.8353 122.24 33.9679C122.372 34.2164 122.555 34.4567 122.787 34.6887C123.035 34.9207 123.35 35.1113 123.731 35.2604C124.129 35.393 124.618 35.4593 125.198 35.4593C126.159 35.4593 126.88 35.3102 127.36 35.0119C127.857 34.7136 128.106 34.3076 128.106 33.7939C128.106 33.4293 127.973 33.131 127.708 32.899C127.443 32.6504 127.012 32.435 126.416 32.2527C125.836 32.0539 125.057 31.855 124.079 31.6562C122.82 31.391 121.743 31.0513 120.848 30.637C119.969 30.2062 119.298 29.651 118.834 28.9716C118.37 28.2756 118.138 27.4139 118.138 26.3864C118.138 25.3756 118.42 24.4724 118.983 23.677C119.563 22.8816 120.367 22.2602 121.395 21.8127C122.422 21.3653 123.64 21.1416 125.049 21.1416C126.192 21.1416 127.195 21.2907 128.056 21.589C128.935 21.8873 129.672 22.285 130.269 22.7822C130.865 23.2793 131.313 23.8096 131.611 24.373C131.926 24.9199 132.091 25.4584 132.108 25.9887C132.108 26.1213 132.058 26.2456 131.959 26.3616C131.859 26.461 131.735 26.5107 131.586 26.5107H128.305C128.123 26.5107 127.965 26.4776 127.833 26.4113C127.7 26.345 127.584 26.2373 127.485 26.0882C127.385 25.7236 127.12 25.4087 126.689 25.1436C126.275 24.8619 125.728 24.721 125.049 24.721C124.319 24.721 123.748 24.8536 123.333 25.1187C122.936 25.3673 122.737 25.7567 122.737 26.287C122.737 26.6184 122.845 26.9084 123.06 27.157C123.292 27.4056 123.665 27.621 124.179 27.8033C124.709 27.9856 125.43 28.1762 126.341 28.375C127.849 28.6567 129.067 29.013 129.995 29.4439C130.923 29.8582 131.603 30.405 132.033 31.0844C132.464 31.7473 132.68 32.5842 132.68 33.595C132.68 34.7219 132.357 35.6996 131.71 36.5282C131.081 37.3402 130.202 37.9616 129.075 38.3924C127.949 38.8233 126.656 39.0387 125.198 39.0387ZM140.836 39.0387C139.609 39.0387 138.524 38.815 137.579 38.3676C136.635 37.9202 135.881 37.2739 135.317 36.4287C134.77 35.567 134.472 34.5396 134.422 33.3464C134.406 33.0813 134.398 32.7499 134.398 32.3522C134.398 31.9379 134.406 31.5982 134.422 31.333C134.472 30.1233 134.77 29.0959 135.317 28.2507C135.864 27.389 136.61 26.7344 137.554 26.287C138.516 25.8396 139.609 25.6159 140.836 25.6159C141.979 25.6159 142.957 25.7816 143.769 26.113C144.581 26.4279 145.244 26.8256 145.757 27.3062C146.271 27.7867 146.652 28.2839 146.901 28.7976C147.166 29.2947 147.307 29.7339 147.323 30.115C147.34 30.2807 147.282 30.4299 147.149 30.5624C147.017 30.6784 146.868 30.7364 146.702 30.7364H143.545C143.363 30.7364 143.222 30.695 143.122 30.6122C143.023 30.5293 142.932 30.405 142.849 30.2393C142.65 29.7256 142.393 29.361 142.078 29.1456C141.78 28.9302 141.391 28.8224 140.91 28.8224C140.247 28.8224 139.734 29.0379 139.369 29.4687C139.021 29.8996 138.83 30.5624 138.797 31.4573C138.781 32.1202 138.781 32.7084 138.797 33.2222C138.83 34.1336 139.021 34.7964 139.369 35.2107C139.734 35.625 140.247 35.8322 140.91 35.8322C141.424 35.8322 141.83 35.7244 142.128 35.509C142.426 35.2936 142.667 34.929 142.849 34.4153C142.932 34.2496 143.023 34.1253 143.122 34.0424C143.222 33.9596 143.363 33.9182 143.545 33.9182H146.702C146.868 33.9182 147.017 33.9844 147.149 34.117C147.282 34.233 147.34 34.3739 147.323 34.5396C147.307 34.8213 147.224 35.1527 147.075 35.5339C146.926 35.8984 146.694 36.2879 146.379 36.7022C146.064 37.1164 145.65 37.5059 145.136 37.8704C144.639 38.2184 144.034 38.5002 143.321 38.7156C142.609 38.931 141.78 39.0387 140.836 39.0387ZM150.178 38.7902C149.996 38.7902 149.846 38.7322 149.73 38.6162C149.614 38.5002 149.556 38.351 149.556 38.1687V21.763C149.556 21.5807 149.614 21.4316 149.73 21.3156C149.846 21.1996 149.996 21.1416 150.178 21.1416H153.36C153.542 21.1416 153.691 21.1996 153.807 21.3156C153.923 21.4316 153.981 21.5807 153.981 21.763V27.3062C154.428 26.7924 154.975 26.3864 155.622 26.0882C156.284 25.7733 157.047 25.6159 157.908 25.6159C158.87 25.6159 159.723 25.8313 160.469 26.2622C161.231 26.693 161.828 27.331 162.258 28.1762C162.689 29.0047 162.905 30.0239 162.905 31.2336V38.1687C162.905 38.351 162.847 38.5002 162.731 38.6162C162.615 38.7322 162.466 38.7902 162.283 38.7902H159.077C158.911 38.7902 158.762 38.7322 158.629 38.6162C158.513 38.5002 158.455 38.351 158.455 38.1687V31.3827C158.455 30.6039 158.265 30.0073 157.884 29.593C157.519 29.1622 156.972 28.9467 156.243 28.9467C155.564 28.9467 155.017 29.1622 154.602 29.593C154.188 30.0073 153.981 30.6039 153.981 31.3827V38.1687C153.981 38.351 153.923 38.5002 153.807 38.6162C153.691 38.7322 153.542 38.7902 153.36 38.7902H150.178ZM171.838 39.0387C170.446 39.0387 169.27 38.815 168.308 38.3676C167.364 37.9202 166.635 37.2822 166.121 36.4536C165.624 35.6084 165.342 34.6059 165.276 33.4459C165.259 33.1144 165.251 32.7416 165.251 32.3273C165.251 31.8964 165.259 31.5236 165.276 31.2087C165.342 30.0322 165.64 29.0296 166.171 28.201C166.701 27.3724 167.438 26.7344 168.383 26.287C169.344 25.8396 170.496 25.6159 171.838 25.6159C173.197 25.6159 174.349 25.8396 175.293 26.287C176.254 26.7344 177 27.3724 177.53 28.201C178.061 29.0296 178.359 30.0322 178.425 31.2087C178.442 31.5236 178.45 31.8964 178.45 32.3273C178.45 32.7416 178.442 33.1144 178.425 33.4459C178.359 34.6059 178.069 35.6084 177.555 36.4536C177.058 37.2822 176.329 37.9202 175.368 38.3676C174.423 38.815 173.247 39.0387 171.838 39.0387ZM171.838 36.0062C172.584 36.0062 173.122 35.7824 173.454 35.335C173.802 34.8876 174.001 34.2164 174.05 33.3216C174.067 33.073 174.075 32.7416 174.075 32.3273C174.075 31.913 174.067 31.5816 174.05 31.333C174.001 30.4547 173.802 29.7919 173.454 29.3444C173.122 28.8804 172.584 28.6484 171.838 28.6484C171.109 28.6484 170.57 28.8804 170.222 29.3444C169.874 29.7919 169.684 30.4547 169.651 31.333C169.634 31.5816 169.626 31.913 169.626 32.3273C169.626 32.7416 169.634 33.073 169.651 33.3216C169.684 34.2164 169.874 34.8876 170.222 35.335C170.57 35.7824 171.109 36.0062 171.838 36.0062ZM187.01 39.0387C185.618 39.0387 184.441 38.815 183.48 38.3676C182.536 37.9202 181.806 37.2822 181.293 36.4536C180.796 35.6084 180.514 34.6059 180.448 33.4459C180.431 33.1144 180.423 32.7416 180.423 32.3273C180.423 31.8964 180.431 31.5236 180.448 31.2087C180.514 30.0322 180.812 29.0296 181.342 28.201C181.873 27.3724 182.61 26.7344 183.555 26.287C184.516 25.8396 185.668 25.6159 187.01 25.6159C188.369 25.6159 189.52 25.8396 190.465 26.287C191.426 26.7344 192.172 27.3724 192.702 28.201C193.232 29.0296 193.531 30.0322 193.597 31.2087C193.614 31.5236 193.622 31.8964 193.622 32.3273C193.622 32.7416 193.614 33.1144 193.597 33.4459C193.531 34.6059 193.241 35.6084 192.727 36.4536C192.23 37.2822 191.501 37.9202 190.54 38.3676C189.595 38.815 188.418 39.0387 187.01 39.0387ZM187.01 36.0062C187.756 36.0062 188.294 35.7824 188.626 35.335C188.974 34.8876 189.172 34.2164 189.222 33.3216C189.239 33.073 189.247 32.7416 189.247 32.3273C189.247 31.913 189.239 31.5816 189.222 31.333C189.172 30.4547 188.974 29.7919 188.626 29.3444C188.294 28.8804 187.756 28.6484 187.01 28.6484C186.281 28.6484 185.742 28.8804 185.394 29.3444C185.046 29.7919 184.856 30.4547 184.822 31.333C184.806 31.5816 184.798 31.913 184.798 32.3273C184.798 32.7416 184.806 33.073 184.822 33.3216C184.856 34.2164 185.046 34.8876 185.394 35.335C185.742 35.7824 186.281 36.0062 187.01 36.0062ZM196.688 38.7902C196.506 38.7902 196.357 38.7322 196.241 38.6162C196.125 38.5002 196.067 38.351 196.067 38.1687V21.763C196.067 21.5807 196.125 21.4316 196.241 21.3156C196.357 21.1996 196.506 21.1416 196.688 21.1416H199.621C199.803 21.1416 199.953 21.1996 200.069 21.3156C200.185 21.4316 200.243 21.5807 200.243 21.763V38.1687C200.243 38.351 200.185 38.5002 200.069 38.6162C199.953 38.7322 199.803 38.7902 199.621 38.7902H196.688Z" fill="white"/>
</g>
<defs>
<filter id="filter0_d_44115_1789" x="0.126465" y="0.790161" width="204.116" height="67" filterUnits="userSpaceOnUse" color-interpolation-filters="sRGB">
<feFlood flood-opacity="0" result="BackgroundImageFix"/>
<feColorMatrix in="SourceAlpha" type="matrix" values="0 0 0 0 0 0 0 0 0 0 0 0 0 0 0 0 0 0 127 0" result="hardAlpha"/>
<feOffset dy="4"/>
<feGaussianBlur stdDeviation="2"/>
<feComposite in2="hardAlpha" operator="out"/>
<feColorMatrix type="matrix" values="0 0 0 0 0 0 0 0 0 0 0 0 0 0 0 0 0 0 0.25 0"/>
<feBlend mode="normal" in2="BackgroundImageFix" result="effect1_dropShadow_44115_1789"/>
<feBlend mode="normal" in="SourceGraphic" in2="effect1_dropShadow_44115_1789" result="shape"/>
</filter>
<clipPath id="clip0_44115_1789">
<rect width="72" height="59" fill="white" transform="translate(4.12646 0.790161)"/>
</clipPath>
</defs>
</svg>
