<svg width="205" height="68" viewBox="0 0 205 68" fill="none" xmlns="http://www.w3.org/2000/svg">
<g filter="url(#filter0_d_44115_1721)">
<g clip-path="url(#clip0_44115_1721)">
<path d="M65.4179 18.0315V40.2868C65.4179 41.1945 65.2184 42.0685 64.8858 42.8418C64.3537 44.052 63.4558 45.0606 62.2918 45.7329L52.9801 51.1455L43.2359 56.827C42.5043 57.2304 41.7394 57.4993 40.9413 57.6338C39.6775 57.8019 38.3473 57.5666 37.1833 56.9614C37.1168 56.9278 37.0503 56.8942 36.9838 56.8606L32.3944 54.1711L17.9611 45.7329C16.7971 45.0606 15.8992 44.0184 15.3671 42.8418C15.0013 42.0349 14.835 41.1945 14.835 40.2868V18.0315C14.835 15.7791 16.0323 13.6948 17.9611 12.5854L33.3256 3.60929L35.9861 2.06285L36.9838 1.49134C38.2142 0.78536 39.5778 0.516415 40.9413 0.718124C41.7394 0.818979 42.5043 1.08792 43.2359 1.49134L52.9801 7.17282L62.2918 12.619C64.2207 13.6948 65.4179 15.7791 65.4179 18.0315Z" fill="#217C58"/>
<path d="M40.1098 55.1461C39.5445 55.1461 39.0124 55.0117 38.5135 54.7091L19.0253 43.3125C18.0276 42.741 17.429 41.6652 17.429 40.5222V17.7627C17.429 16.6197 18.0276 15.5439 19.0253 14.9724L38.5135 3.6094C39.0124 3.34045 39.5445 3.17236 40.1098 3.17236C40.6752 3.17236 41.2073 3.30684 41.7062 3.6094L61.1944 14.9724C62.1921 15.5439 62.7907 16.6197 62.7907 17.7627V40.5222C62.7907 41.6652 62.1921 42.741 61.1944 43.3125L41.7062 54.7091C41.2406 54.9781 40.6752 55.1461 40.1098 55.1461Z" fill="#21B573"/>
<path d="M60.4295 7.13916C60.4295 17.9306 60.4295 30.134 60.4295 40.9255C53.745 38.6394 46.7944 38.6394 40.1431 40.9255C40.1431 39.9842 40.1431 39.0093 40.1431 38.0679C46.1958 36.1517 52.4812 36.1517 58.5339 38.0679C58.5339 27.7471 58.5339 17.46 58.5339 7.13916H60.4295V7.13916Z" fill="#56548C"/>
<path d="M40.1099 38.0679C40.1099 39.0093 40.1099 39.9842 40.1099 40.9255C33.4253 38.6394 26.4748 38.6394 19.8235 40.9255C19.8235 30.134 19.8235 17.9306 19.8235 7.13916H21.7524C21.7524 17.46 21.7524 27.7471 21.7524 38.0679C27.7718 36.1517 34.0905 36.1517 40.1099 38.0679Z" fill="#46467C"/>
<path d="M40.1099 38.068C40.1099 27.2093 40.1099 16.3506 40.1099 5.4583C46.1625 3.54206 52.448 3.54206 58.5006 5.4583C58.5006 5.99619 58.5006 6.5677 58.5006 7.13921C58.5006 17.46 58.5006 27.7472 58.5006 38.068C52.448 36.1518 46.1625 36.1518 40.1099 38.068Z" fill="#E4E8EA"/>
<path d="M40.1099 5.49138C40.1099 16.3501 40.1099 27.2088 40.1099 38.1011C34.0572 36.1848 27.7718 36.1848 21.7191 38.1011C21.7191 27.7803 21.7191 17.4931 21.7191 7.17229C21.7191 6.6344 21.7191 6.06289 21.7191 5.49138C27.7718 3.57514 34.0905 3.57514 40.1099 5.49138Z" fill="#F9FBFC"/>
<path d="M21.7524 35.1432C21.7524 36.1182 21.7524 37.0931 21.7524 38.068C27.805 36.1518 34.0905 36.1518 40.1431 38.068C40.1431 37.0931 40.1431 36.1182 40.1431 35.1432C34.0905 33.227 27.7718 33.227 21.7524 35.1432Z" fill="#E4E8EA"/>
<path d="M58.5006 35.1432C58.5006 36.1182 58.5006 37.0931 58.5006 38.068C52.448 36.1518 46.1625 36.1518 40.1099 38.068C40.1099 37.0931 40.1099 36.1182 40.1099 35.1432C46.1625 33.227 52.448 33.227 58.5006 35.1432Z" fill="#CED5D8"/>
<path d="M37.4494 7.71067C33.126 6.73574 28.7362 6.73574 24.4129 7.71067L24.3131 7.30725C28.7029 6.33232 33.126 6.33232 37.5159 7.30725L37.4494 7.71067Z" fill="#56548C"/>
<path d="M37.4494 11.1397C33.126 10.1647 28.7362 10.1647 24.4129 11.1397L24.3131 10.7026C28.7029 9.7277 33.126 9.7277 37.5159 10.7026L37.4494 11.1397Z" fill="#56548C"/>
<path d="M37.4494 14.5351C33.126 13.5602 28.7362 13.5602 24.4129 14.5351L24.3131 14.1317C28.7029 13.1568 33.126 13.1568 37.5159 14.1317L37.4494 14.5351Z" fill="#56548C"/>
<path d="M37.4494 17.9642C33.126 16.9893 28.7362 16.9893 24.4129 17.9642L24.3131 17.5608C28.7029 16.5859 33.126 16.5859 37.5159 17.5608L37.4494 17.9642Z" fill="#56548C"/>
<path d="M37.4494 21.3933C33.126 20.452 28.7362 20.452 24.4129 21.3933L24.3131 20.9899C28.7029 20.0149 33.126 20.0149 37.5159 20.9899L37.4494 21.3933Z" fill="#56548C"/>
<path d="M37.4494 24.8224C33.126 23.8474 28.7362 23.8474 24.4129 24.8224L24.3131 24.4189C28.7029 23.444 33.126 23.444 37.5159 24.4189L37.4494 24.8224Z" fill="#56548C"/>
<path d="M37.4494 28.2514C33.126 27.2765 28.7362 27.2765 24.4129 28.2514L24.3131 27.848C28.7029 26.8731 33.126 26.8731 37.5159 27.848L37.4494 28.2514Z" fill="#56548C"/>
<path d="M37.4494 31.6805C33.126 30.7056 28.7362 30.7056 24.4129 31.6805L24.3131 31.2771C28.7029 30.3022 33.126 30.3022 37.5159 31.2771L37.4494 31.6805Z" fill="#56548C"/>
<path d="M55.8069 7.71067C51.4835 6.73574 47.0937 6.73574 42.7704 7.71067L42.6706 7.30725C47.0604 6.33232 51.4835 6.33232 55.8734 7.30725L55.8069 7.71067Z" fill="#56548C"/>
<path d="M55.8069 11.1397C51.4835 10.1647 47.0937 10.1647 42.7704 11.1397L42.7039 10.7026C47.0937 9.7277 51.5168 9.7277 55.9066 10.7026L55.8069 11.1397Z" fill="#56548C"/>
<path d="M55.8069 14.5351C51.4835 13.5602 47.0937 13.5602 42.7704 14.5351L42.6706 14.1317C47.0604 13.1568 51.4835 13.1568 55.8734 14.1317L55.8069 14.5351Z" fill="#56548C"/>
<path d="M55.8069 17.9642C51.4835 16.9893 47.0937 16.9893 42.7704 17.9642L42.6706 17.5608C47.0604 16.5859 51.4835 16.5859 55.8734 17.5608L55.8069 17.9642Z" fill="#56548C"/>
<path d="M55.8069 21.3933C51.4835 20.4184 47.0937 20.4184 42.7704 21.3933L42.6706 20.9899C47.0604 20.0149 51.4835 20.0149 55.8734 20.9899L55.8069 21.3933Z" fill="#56548C"/>
<path d="M55.8069 24.8224C51.4835 23.8474 47.0937 23.8474 42.7704 24.8224L42.6706 24.4189C47.0604 23.444 51.4835 23.444 55.8734 24.4189L55.8069 24.8224Z" fill="#56548C"/>
<path d="M55.8069 28.2514C51.4835 27.2765 47.0937 27.2765 42.7704 28.2514L42.7039 27.848C47.0937 26.8731 51.5168 26.8731 55.9066 27.848L55.8069 28.2514Z" fill="#56548C"/>
<path d="M55.8069 31.6805C51.4835 30.7056 47.0937 30.7056 42.7704 31.6805L42.6706 31.2771C47.0604 30.3022 51.4835 30.3022 55.8734 31.2771L55.8069 31.6805Z" fill="#56548C"/>
<path d="M55.7403 43.9843C55.7403 43.0766 55.0087 42.3706 54.144 42.3706H52.581H48.5569H29.9999L26.1754 43.7153V44.9592L29.9999 46.3039H48.5569H52.581H54.144C55.0419 46.3039 55.7403 45.5643 55.7403 44.6903V43.9843Z" fill="#EEE2D2"/>
<path d="M54.144 42.3711C55.042 42.3711 55.7404 43.1107 55.7404 43.9848V44.6572C55.7404 45.5649 55.0087 46.2709 54.144 46.2709H52.581V45.6994V44.758V43.8167V42.8754V42.3375H54.144V42.3711Z" fill="#F49A9A"/>
<path d="M48.557 42.3706H52.581V42.9085H48.557V42.3706Z" fill="#FBD15B"/>
<path d="M52.581 43.8503V44.758H48.557V44.321V43.8503H52.581Z" fill="#FBD15B"/>
<path d="M52.581 45.6993V46.3045H48.557V45.6993H52.581Z" fill="#FBD15B"/>
<path d="M52.581 44.7581H48.557V45.6994H52.581V44.7581Z" fill="#E2B137"/>
<path d="M52.581 42.9091V43.8504H48.557V42.9091H52.581Z" fill="#E2B137"/>
<path d="M48.557 42.3706V42.9085V43.8498V44.3205H29.9999V42.3706H48.557Z" fill="#56548C"/>
<path d="M48.557 44.321V44.7581V45.6994V46.3045H29.9999V44.321H48.557Z" fill="#46467C"/>
<path d="M24.4794 44.3209L26.1754 43.7158V44.9597L24.4794 44.3209Z" fill="#3B4D57"/>
<path d="M29.9999 42.3706V44.3205V46.3039L26.1754 44.9592V43.7153L29.9999 42.3706Z" fill="#FFC8AF"/>
<path d="M14.7353 44.489C31.1972 50.036 49.0226 50.036 65.4845 44.489C66.6152 47.9517 67.7792 51.448 68.9099 54.9107C50.2198 61.2309 29.9999 61.2309 11.2766 54.9107C12.4406 51.4144 13.6046 47.9517 14.7353 44.489Z" fill="#FBD15B"/>
<path d="M4.12646 48.1871C6.85349 49.4309 9.61376 50.5403 12.4406 51.4816C13.2054 49.162 13.9703 46.8087 14.7685 44.489C16.5311 45.0942 18.2937 45.5984 20.0563 46.0691C20.3556 44.8925 20.6549 43.7494 20.9542 42.5728C16.7639 41.4634 12.6401 40.0178 8.61607 38.1688C8.81561 40.2532 9.0484 42.3711 9.38097 44.489C7.68489 45.7665 5.92231 47.0104 4.12646 48.1871Z" fill="#F4C653"/>
<path d="M14.7352 44.4891C16.8636 43.9512 18.9255 43.3124 20.9209 42.6064C20.6216 43.7831 20.3223 44.9261 20.023 46.1027C18.2604 45.5985 16.4978 45.0606 14.7352 44.4891Z" fill="#E2B042"/>
<path d="M76.1265 48.1871C73.3995 49.4309 70.6392 50.5403 67.8124 51.4816C67.0475 49.162 66.2826 46.8087 65.4844 44.489C63.7219 45.0942 61.9593 45.5984 60.1967 46.0691C59.8974 44.8925 59.5981 43.7494 59.2988 42.5728C63.4891 41.4634 67.6129 40.0178 71.6369 38.1688C71.4373 40.2532 71.2045 42.3711 70.872 44.489C72.5681 45.7665 74.2974 47.0104 76.1265 48.1871Z" fill="#F4C653"/>
<path d="M65.4845 44.4891C63.356 43.9512 61.2941 43.3124 59.2988 42.6064C59.5981 43.7831 59.8974 44.9261 60.1967 46.1027C61.9593 45.5985 63.7551 45.0606 65.4845 44.4891Z" fill="#E2B042"/>
</g>
<path d="M86.4879 38.6173C86.3222 38.6173 86.173 38.5593 86.0405 38.4433C85.9245 38.3107 85.8665 38.1616 85.8665 37.9959V21.8387C85.8665 21.6565 85.9245 21.5073 86.0405 21.3913C86.173 21.2753 86.3222 21.2173 86.4879 21.2173H98.0962C98.2785 21.2173 98.4276 21.2753 98.5436 21.3913C98.6596 21.5073 98.7176 21.6565 98.7176 21.8387V24.1753C98.7176 24.341 98.6596 24.4902 98.5436 24.6227C98.4276 24.7387 98.2785 24.7967 98.0962 24.7967H90.1668V28.1525H97.5493C97.7316 28.1525 97.8808 28.2187 97.9968 28.3513C98.1128 28.4673 98.1708 28.6165 98.1708 28.7987V30.9613C98.1708 31.127 98.1128 31.2762 97.9968 31.4087C97.8808 31.5247 97.7316 31.5827 97.5493 31.5827H90.1668V35.0379H98.295C98.4773 35.0379 98.6265 35.0959 98.7425 35.2119C98.8585 35.3279 98.9165 35.477 98.9165 35.6593V37.9959C98.9165 38.1616 98.8585 38.3107 98.7425 38.4433C98.6265 38.5593 98.4773 38.6173 98.295 38.6173H86.4879ZM101.87 32.9499C101.688 32.9499 101.539 32.8919 101.423 32.7759C101.307 32.6599 101.249 32.5107 101.249 32.3285V29.9919C101.249 29.8096 101.307 29.6605 101.423 29.5445C101.539 29.4285 101.688 29.3705 101.87 29.3705H109.651C109.833 29.3705 109.982 29.4285 110.098 29.5445C110.231 29.6605 110.297 29.8096 110.297 29.9919V32.3285C110.297 32.5107 110.231 32.6599 110.098 32.7759C109.982 32.8919 109.833 32.9499 109.651 32.9499H101.87ZM125.198 38.8659C123.623 38.8659 122.273 38.6339 121.146 38.1699C120.019 37.7059 119.166 37.101 118.586 36.3553C118.022 35.593 117.724 34.7645 117.691 33.8696C117.691 33.737 117.741 33.621 117.84 33.5216C117.956 33.4056 118.089 33.3476 118.238 33.3476H121.37C121.569 33.3476 121.726 33.389 121.842 33.4719C121.975 33.5382 122.107 33.6459 122.24 33.795C122.455 34.2259 122.803 34.5822 123.284 34.8639C123.764 35.1456 124.402 35.2865 125.198 35.2865C126.142 35.2865 126.863 35.1373 127.36 34.839C127.857 34.5407 128.106 34.1347 128.106 33.621C128.106 33.2565 127.973 32.9582 127.708 32.7262C127.46 32.4942 127.062 32.287 126.515 32.1047C125.968 31.9225 125.156 31.7153 124.079 31.4833C122.091 31.069 120.599 30.4642 119.605 29.6687C118.627 28.8567 118.138 27.705 118.138 26.2136C118.138 25.2027 118.42 24.2996 118.983 23.5042C119.547 22.7087 120.351 22.0873 121.395 21.6399C122.439 21.1925 123.657 20.9687 125.049 20.9687C126.49 20.9687 127.741 21.2173 128.802 21.7145C129.863 22.2116 130.666 22.8413 131.213 23.6036C131.777 24.3493 132.075 25.0867 132.108 25.8159C132.108 25.965 132.058 26.0893 131.959 26.1887C131.859 26.2882 131.735 26.3379 131.586 26.3379H128.305C128.106 26.3379 127.94 26.3047 127.808 26.2385C127.692 26.1722 127.584 26.0645 127.485 25.9153C127.385 25.5342 127.112 25.211 126.664 24.9459C126.233 24.6807 125.695 24.5482 125.049 24.5482C124.303 24.5482 123.731 24.6807 123.333 24.9459C122.936 25.211 122.737 25.6005 122.737 26.1142C122.737 26.4622 122.845 26.7522 123.06 26.9842C123.292 27.2162 123.657 27.4316 124.154 27.6305C124.667 27.8127 125.397 28.0033 126.341 28.2022C127.882 28.4839 129.109 28.8402 130.02 29.271C130.948 29.6853 131.627 30.2322 132.058 30.9116C132.489 31.5745 132.705 32.4113 132.705 33.4222C132.705 34.5325 132.381 35.5019 131.735 36.3305C131.105 37.1425 130.219 37.7722 129.075 38.2196C127.949 38.6505 126.656 38.8659 125.198 38.8659ZM140.86 38.8659C138.987 38.8659 137.471 38.3687 136.311 37.3745C135.151 36.3636 134.53 34.9633 134.447 33.1736L134.422 32.1793L134.447 31.1602C134.513 29.3705 135.126 27.9702 136.286 26.9593C137.463 25.9485 138.987 25.443 140.86 25.443C142.268 25.443 143.453 25.6999 144.414 26.2136C145.392 26.7107 146.113 27.3156 146.577 28.0282C147.058 28.7242 147.314 29.3622 147.348 29.9422C147.364 30.1079 147.306 30.257 147.174 30.3896C147.058 30.5056 146.908 30.5636 146.726 30.5636H143.569C143.387 30.5636 143.246 30.5222 143.147 30.4393C143.047 30.3565 142.956 30.2322 142.873 30.0665C142.674 29.5527 142.418 29.1882 142.103 28.9727C141.804 28.7573 141.415 28.6496 140.934 28.6496C139.576 28.6496 138.871 29.5279 138.822 31.2845L138.797 32.229L138.822 33.0493C138.855 33.9442 139.045 34.607 139.393 35.0379C139.758 35.4522 140.272 35.6593 140.934 35.6593C141.448 35.6593 141.854 35.5516 142.152 35.3362C142.451 35.1207 142.691 34.7562 142.873 34.2425C142.956 34.0767 143.047 33.9525 143.147 33.8696C143.246 33.7867 143.387 33.7453 143.569 33.7453H146.726C146.892 33.7453 147.033 33.8033 147.149 33.9193C147.281 34.0187 147.348 34.1513 147.348 34.317C147.348 34.8473 147.116 35.4687 146.652 36.1813C146.204 36.8939 145.492 37.5236 144.514 38.0705C143.536 38.6007 142.318 38.8659 140.86 38.8659ZM150.202 38.6173C150.036 38.6173 149.887 38.5593 149.755 38.4433C149.639 38.3107 149.581 38.1616 149.581 37.9959V21.5902C149.581 21.4079 149.639 21.2587 149.755 21.1427C149.887 21.0267 150.036 20.9687 150.202 20.9687H153.384C153.566 20.9687 153.715 21.0267 153.831 21.1427C153.947 21.2587 154.005 21.4079 154.005 21.5902V27.1333C155 26.0065 156.309 25.443 157.933 25.443C158.894 25.443 159.747 25.6585 160.493 26.0893C161.255 26.5202 161.852 27.1582 162.283 28.0033C162.714 28.8485 162.929 29.8676 162.929 31.0607V37.9959C162.929 38.1616 162.871 38.3107 162.755 38.4433C162.639 38.5593 162.49 38.6173 162.308 38.6173H159.101C158.935 38.6173 158.786 38.5593 158.654 38.4433C158.538 38.3107 158.48 38.1616 158.48 37.9959V31.2099C158.48 30.431 158.289 29.8345 157.908 29.4202C157.543 28.9893 157.005 28.7739 156.292 28.7739C155.58 28.7739 155.016 28.9893 154.602 29.4202C154.204 29.8345 154.005 30.431 154.005 31.2099V37.9959C154.005 38.1782 153.947 38.3273 153.831 38.4433C153.715 38.5593 153.566 38.6173 153.384 38.6173H150.202ZM171.862 38.8659C169.808 38.8659 168.225 38.377 167.115 37.3993C166.004 36.4216 165.4 35.0462 165.3 33.273C165.284 33.0576 165.275 32.6847 165.275 32.1545C165.275 31.6242 165.284 31.2513 165.3 31.0359C165.4 29.2793 166.021 27.9122 167.164 26.9345C168.308 25.9402 169.874 25.443 171.862 25.443C173.868 25.443 175.442 25.9402 176.585 26.9345C177.729 27.9122 178.35 29.2793 178.45 31.0359C178.466 31.2513 178.474 31.6242 178.474 32.1545C178.474 32.6847 178.466 33.0576 178.45 33.273C178.35 35.0462 177.745 36.4216 176.635 37.3993C175.525 38.377 173.934 38.8659 171.862 38.8659ZM171.862 35.8333C172.592 35.8333 173.13 35.6179 173.478 35.187C173.826 34.7396 174.025 34.0602 174.075 33.1487C174.091 32.983 174.1 32.6516 174.1 32.1545C174.1 31.6573 174.091 31.3259 174.075 31.1602C174.025 30.2653 173.818 29.5942 173.453 29.1467C173.105 28.6993 172.575 28.4756 171.862 28.4756C170.487 28.4756 169.758 29.3705 169.675 31.1602L169.65 32.1545L169.675 33.1487C169.708 34.0602 169.899 34.7396 170.247 35.187C170.611 35.6179 171.15 35.8333 171.862 35.8333ZM187.058 38.8659C185.003 38.8659 183.421 38.377 182.311 37.3993C181.2 36.4216 180.595 35.0462 180.496 33.273C180.479 33.0576 180.471 32.6847 180.471 32.1545C180.471 31.6242 180.479 31.2513 180.496 31.0359C180.595 29.2793 181.217 27.9122 182.36 26.9345C183.504 25.9402 185.07 25.443 187.058 25.443C189.063 25.443 190.638 25.9402 191.781 26.9345C192.925 27.9122 193.546 29.2793 193.645 31.0359C193.662 31.2513 193.67 31.6242 193.67 32.1545C193.67 32.6847 193.662 33.0576 193.645 33.273C193.546 35.0462 192.941 36.4216 191.831 37.3993C190.721 38.377 189.13 38.8659 187.058 38.8659ZM187.058 35.8333C187.787 35.8333 188.326 35.6179 188.674 35.187C189.022 34.7396 189.221 34.0602 189.271 33.1487C189.287 32.983 189.295 32.6516 189.295 32.1545C189.295 31.6573 189.287 31.3259 189.271 31.1602C189.221 30.2653 189.014 29.5942 188.649 29.1467C188.301 28.6993 187.771 28.4756 187.058 28.4756C185.683 28.4756 184.954 29.3705 184.871 31.1602L184.846 32.1545L184.871 33.1487C184.904 34.0602 185.095 34.7396 185.443 35.187C185.807 35.6179 186.346 35.8333 187.058 35.8333ZM196.761 38.6173C196.595 38.6173 196.446 38.5593 196.313 38.4433C196.197 38.3107 196.139 38.1616 196.139 37.9959V21.5902C196.139 21.4079 196.197 21.2587 196.313 21.1427C196.446 21.0267 196.595 20.9687 196.761 20.9687H199.694C199.876 20.9687 200.025 21.0267 200.141 21.1427C200.257 21.2587 200.315 21.4079 200.315 21.5902V37.9959C200.315 38.1782 200.257 38.3273 200.141 38.4433C200.025 38.5593 199.876 38.6173 199.694 38.6173H196.761Z" fill="#56548C"/>
</g>
<defs>
<filter id="filter0_d_44115_1721" x="0.126465" y="0.61731" width="204.189" height="67" filterUnits="userSpaceOnUse" color-interpolation-filters="sRGB">
<feFlood flood-opacity="0" result="BackgroundImageFix"/>
<feColorMatrix in="SourceAlpha" type="matrix" values="0 0 0 0 0 0 0 0 0 0 0 0 0 0 0 0 0 0 127 0" result="hardAlpha"/>
<feOffset dy="4"/>
<feGaussianBlur stdDeviation="2"/>
<feComposite in2="hardAlpha" operator="out"/>
<feColorMatrix type="matrix" values="0 0 0 0 0 0 0 0 0 0 0 0 0 0 0 0 0 0 0.25 0"/>
<feBlend mode="normal" in2="BackgroundImageFix" result="effect1_dropShadow_44115_1721"/>
<feBlend mode="normal" in="SourceGraphic" in2="effect1_dropShadow_44115_1721" result="shape"/>
</filter>
<clipPath id="clip0_44115_1721">
<rect width="72" height="59" fill="white" transform="translate(4.12646 0.61731)"/>
</clipPath>
</defs>
</svg>
